<?xml version="1.0" encoding="UTF-8" standalone="no"?>
<!-- Created with Inkscape (http://www.inkscape.org/) -->

<svg
   xmlns:dc="http://purl.org/dc/elements/1.1/"
   xmlns:cc="http://creativecommons.org/ns#"
   xmlns:rdf="http://www.w3.org/1999/02/22-rdf-syntax-ns#"
   xmlns:svg="http://www.w3.org/2000/svg"
   xmlns="http://www.w3.org/2000/svg"
   xmlns:sodipodi="http://sodipodi.sourceforge.net/DTD/sodipodi-0.dtd"
   xmlns:inkscape="http://www.inkscape.org/namespaces/inkscape"
   id="svg2"
   version="1.1"
   inkscape:version="0.48.4 r9939"
   width="272.3"
   height="112.75"
   xml:space="preserve"
   sodipodi:docname="paragauss_logo.eps"><metadata
     id="metadata8"><rdf:RDF><cc:Work
         rdf:about=""><dc:format>image/svg+xml</dc:format><dc:type
           rdf:resource="http://purl.org/dc/dcmitype/StillImage" /><dc:title></dc:title></cc:Work></rdf:RDF></metadata><defs
     id="defs6" /><sodipodi:namedview
     pagecolor="#ffffff"
     bordercolor="#666666"
     borderopacity="1"
     objecttolerance="10"
     gridtolerance="10"
     guidetolerance="10"
     inkscape:pageopacity="0"
     inkscape:pageshadow="2"
     inkscape:window-width="1828"
     inkscape:window-height="1056"
     id="namedview4"
     showgrid="false"
     inkscape:zoom="1.5717959"
     inkscape:cx="136.14999"
     inkscape:cy="56.375"
     inkscape:window-x="-4"
     inkscape:window-y="-3"
     inkscape:window-maximized="1"
     inkscape:current-layer="g10" /><g
     id="g10"
     inkscape:groupmode="layer"
     inkscape:label="ink_ext_XXXXXX"
     transform="matrix(1.25,0,0,-1.25,0,112.75)"><g
       id="g12"
       transform="scale(0.1,0.1)"><path
         d="m 1546.95,596.574 -137.07,-60.422 49.4,117.68 137.05,60.426 -49.38,-117.684"
         style="fill:#cce3f6;fill-opacity:1;fill-rule:nonzero;stroke:none"
         id="path14" /><path
         d="m 1546.95,596.574 -137.07,-60.422 49.4,117.68 137.05,60.426 -49.38,-117.684 z"
         style="fill:none;stroke:#ffffff;stroke-opacity:1;stroke-width:10;stroke-linecap:butt;stroke-linejoin:miter;stroke-miterlimit:4;stroke-dasharray:none"
         id="path16" /><path
         d="M 1459.68,660.918 1322.61,600.5 1372,718.18 l 137.05,60.422 -49.37,-117.684"
         style="fill:#cce3f6;fill-opacity:1;fill-rule:nonzero;stroke:none"
         id="path18" /><path
         d="M 1459.68,660.918 1322.61,600.5 1372,718.18 l 137.05,60.422 -49.37,-117.684 z"
         style="fill:none;stroke:#ffffff;stroke-opacity:1;stroke-width:10;stroke-linecap:butt;stroke-linejoin:miter;stroke-miterlimit:4;stroke-dasharray:none"
         id="path20" /><path
         d="m 1273.23,482.813 -137.07,-60.422 49.39,117.683 137.06,60.426 -49.38,-117.687"
         style="fill:#cce3f6;fill-opacity:1;fill-rule:nonzero;stroke:none"
         id="path22" /><path
         d="m 1273.23,482.813 -137.07,-60.422 49.39,117.683 137.06,60.426 -49.38,-117.687 z"
         style="fill:none;stroke:#ffffff;stroke-opacity:1;stroke-width:10;stroke-linecap:butt;stroke-linejoin:miter;stroke-miterlimit:4;stroke-dasharray:none"
         id="path24" /><path
         d="m 1185.55,540.074 -137.07,-60.422 49.4,117.684 137.05,60.422 -49.38,-117.684"
         style="fill:#cce3f6;fill-opacity:1;fill-rule:nonzero;stroke:none"
         id="path26" /><path
         d="m 1185.55,540.074 -137.07,-60.422 49.4,117.684 137.05,60.422 -49.38,-117.684 z"
         style="fill:none;stroke:#ffffff;stroke-opacity:1;stroke-width:10;stroke-linecap:butt;stroke-linejoin:miter;stroke-miterlimit:4;stroke-dasharray:none"
         id="path28" /><path
         d="M 1098.28,604.418 961.211,544 l 49.399,117.68 137.05,60.425 -49.38,-117.687"
         style="fill:#cce3f6;fill-opacity:1;fill-rule:nonzero;stroke:none"
         id="path30" /><path
         d="M 1098.28,604.418 961.211,544 l 49.399,117.68 137.05,60.425 -49.38,-117.687 z"
         style="fill:none;stroke:#ffffff;stroke-opacity:1;stroke-width:10;stroke-linecap:butt;stroke-linejoin:miter;stroke-miterlimit:4;stroke-dasharray:none"
         id="path32" /><path
         d="M 911.836,426.313 774.766,365.895 824.16,483.574 961.211,544 911.836,426.313"
         style="fill:#cce3f6;fill-opacity:1;fill-rule:nonzero;stroke:none"
         id="path34" /><path
         d="M 911.836,426.313 774.766,365.895 824.16,483.574 961.211,544 911.836,426.313 z"
         style="fill:none;stroke:#ffffff;stroke-opacity:1;stroke-width:10;stroke-linecap:butt;stroke-linejoin:miter;stroke-miterlimit:4;stroke-dasharray:none"
         id="path36" /><path
         d="m 1086.39,297.621 -137.074,-60.418 49.395,117.68 137.049,60.426 -49.37,-117.688"
         style="fill:#cce3f6;fill-opacity:1;fill-rule:nonzero;stroke:none"
         id="path38" /><path
         d="m 1086.39,297.621 -137.074,-60.418 49.395,117.68 137.049,60.426 -49.37,-117.688 z"
         style="fill:none;stroke:#ffffff;stroke-opacity:1;stroke-width:10;stroke-linecap:butt;stroke-linejoin:miter;stroke-miterlimit:4;stroke-dasharray:none"
         id="path40" /><path
         d="m 999.109,361.969 -137.066,-60.422 49.391,117.68 137.046,60.425 -49.371,-117.683"
         style="fill:#cce3f6;fill-opacity:1;fill-rule:nonzero;stroke:none"
         id="path42" /><path
         d="m 999.109,361.969 -137.066,-60.422 49.391,117.68 137.046,60.425 -49.371,-117.683 z"
         style="fill:none;stroke:#ffffff;stroke-opacity:1;stroke-width:10;stroke-linecap:butt;stroke-linejoin:miter;stroke-miterlimit:4;stroke-dasharray:none"
         id="path44" /><path
         d="m 812.668,183.863 -137.07,-60.422 49.39,117.684 137.055,60.422 -49.375,-117.684"
         style="fill:#cce3f6;fill-opacity:1;fill-rule:nonzero;stroke:none"
         id="path46" /><path
         d="m 812.668,183.863 -137.07,-60.422 49.39,117.684 137.055,60.422 -49.375,-117.684 z"
         style="fill:none;stroke:#ffffff;stroke-opacity:1;stroke-width:10;stroke-linecap:butt;stroke-linejoin:miter;stroke-miterlimit:4;stroke-dasharray:none"
         id="path48" /><path
         d="m 1372.4,725.266 -137.07,-60.422 49.4,117.679 137.05,60.426 -49.38,-117.683"
         style="fill:#cce3f6;fill-opacity:1;fill-rule:nonzero;stroke:none"
         id="path50" /><path
         d="m 1372.4,725.266 -137.07,-60.422 49.4,117.679 137.05,60.426 -49.38,-117.683 z"
         style="fill:none;stroke:#ffffff;stroke-opacity:1;stroke-width:10;stroke-linecap:butt;stroke-linejoin:miter;stroke-miterlimit:4;stroke-dasharray:none"
         id="path52" /><path
         d="m 1721.9,474.965 -137.06,-60.418 49.39,117.68 137.05,60.425 -49.38,-117.687"
         style="fill:#cce3f6;fill-opacity:1;fill-rule:nonzero;stroke:none"
         id="path54" /><path
         d="m 1721.9,474.965 -137.06,-60.418 49.39,117.68 137.05,60.425 -49.38,-117.687 z"
         style="fill:none;stroke:#ffffff;stroke-opacity:1;stroke-width:10;stroke-linecap:butt;stroke-linejoin:miter;stroke-miterlimit:4;stroke-dasharray:none"
         id="path56" /><path
         d="m 1634.63,539.313 -137.07,-60.422 49.39,117.683 137.05,60.422 -49.37,-117.683"
         style="fill:#cce3f6;fill-opacity:1;fill-rule:nonzero;stroke:none"
         id="path58" /><path
         d="m 1634.63,539.313 -137.07,-60.422 49.39,117.683 137.05,60.422 -49.37,-117.683 z"
         style="fill:none;stroke:#ffffff;stroke-opacity:1;stroke-width:10;stroke-linecap:butt;stroke-linejoin:miter;stroke-miterlimit:4;stroke-dasharray:none"
         id="path60" /><path
         d="M 1821.07,717.418 1684,656.996 l 49.4,117.684 137.05,60.422 -49.38,-117.684"
         style="fill:#cce3f6;fill-opacity:1;fill-rule:nonzero;stroke:none"
         id="path62" /><path
         d="M 1821.07,717.418 1684,656.996 l 49.4,117.684 137.05,60.422 -49.38,-117.684 z"
         style="fill:none;stroke:#ffffff;stroke-opacity:1;stroke-width:10;stroke-linecap:butt;stroke-linejoin:miter;stroke-miterlimit:4;stroke-dasharray:none"
         id="path64" /><path
         d="m 1996.43,602.895 -137.07,-60.418 49.39,117.679 137.05,60.426 -49.37,-117.687"
         style="fill:#cce3f6;fill-opacity:1;fill-rule:nonzero;stroke:none"
         id="path66" /><path
         d="m 1996.43,602.895 -137.07,-60.418 49.39,117.679 137.05,60.426 -49.37,-117.687 z"
         style="fill:none;stroke:#ffffff;stroke-opacity:1;stroke-width:10;stroke-linecap:butt;stroke-linejoin:miter;stroke-miterlimit:4;stroke-dasharray:none"
         id="path68" /><path
         d="m 1448.18,361.207 -137.07,-60.422 49.4,117.684 137.05,60.422 -49.38,-117.684"
         style="fill:#cce3f6;fill-opacity:1;fill-rule:nonzero;stroke:none"
         id="path70" /><path
         d="m 1448.18,361.207 -137.07,-60.422 49.4,117.684 137.05,60.422 -49.38,-117.684 z"
         style="fill:none;stroke:#ffffff;stroke-opacity:1;stroke-width:10;stroke-linecap:butt;stroke-linejoin:miter;stroke-miterlimit:4;stroke-dasharray:none"
         id="path72" /><path
         d="m 1259.96,183.82 -137.07,-60.422 49.4,117.68 137.05,60.426 -49.38,-117.684"
         style="fill:#cce3f6;fill-opacity:1;fill-rule:nonzero;stroke:none"
         id="path74" /><path
         d="m 1259.96,183.82 -137.07,-60.422 49.4,117.68 137.05,60.426 -49.38,-117.684 z"
         style="fill:none;stroke:#ffffff;stroke-opacity:1;stroke-width:10;stroke-linecap:butt;stroke-linejoin:miter;stroke-miterlimit:4;stroke-dasharray:none"
         id="path76" /><path
         d="m 1172.68,248.164 -137.07,-60.418 49.4,117.68 137.05,60.426 -49.38,-117.688"
         style="fill:#cce3f6;fill-opacity:1;fill-rule:nonzero;stroke:none"
         id="path78" /><path
         d="m 1172.68,248.164 -137.07,-60.418 49.4,117.68 137.05,60.426 -49.38,-117.688 z"
         style="fill:none;stroke:#ffffff;stroke-opacity:1;stroke-width:10;stroke-linecap:butt;stroke-linejoin:miter;stroke-miterlimit:4;stroke-dasharray:none"
         id="path80" /><path
         d="M 986.238,70.0586 849.172,9.64063 898.563,127.32 1035.61,187.746 986.238,70.0586"
         style="fill:#cce3f6;fill-opacity:1;fill-rule:nonzero;stroke:none"
         id="path82" /><path
         d="M 986.238,70.0586 849.172,9.64063 898.563,127.32 1035.61,187.746 986.238,70.0586 z"
         style="fill:none;stroke:#ffffff;stroke-opacity:1;stroke-width:10;stroke-linecap:butt;stroke-linejoin:miter;stroke-miterlimit:4;stroke-dasharray:none"
         id="path84" /><path
         d="m 1623.14,239.602 -137.08,-60.422 49.4,117.679 137.05,60.426 -49.37,-117.683"
         style="fill:#cce3f6;fill-opacity:1;fill-rule:nonzero;stroke:none"
         id="path86" /><path
         d="m 1623.14,239.602 -137.08,-60.422 49.4,117.679 137.05,60.426 -49.37,-117.683 z"
         style="fill:none;stroke:#ffffff;stroke-opacity:1;stroke-width:10;stroke-linecap:butt;stroke-linejoin:miter;stroke-miterlimit:4;stroke-dasharray:none"
         id="path88" /><path
         d="m 1535.86,303.945 -137.07,-60.418 49.39,117.68 137.05,60.426 -49.37,-117.688"
         style="fill:#cce3f6;fill-opacity:1;fill-rule:nonzero;stroke:none"
         id="path90" /><path
         d="m 1535.86,303.945 -137.07,-60.418 49.39,117.68 137.05,60.426 -49.37,-117.688 z"
         style="fill:none;stroke:#ffffff;stroke-opacity:1;stroke-width:10;stroke-linecap:butt;stroke-linejoin:miter;stroke-miterlimit:4;stroke-dasharray:none"
         id="path92" /><path
         d="m 1349.41,125.84 -137.07,-60.4181 49.4,117.6801 137.05,60.425 -49.38,-117.687"
         style="fill:#cce3f6;fill-opacity:1;fill-rule:nonzero;stroke:none"
         id="path94" /><path
         d="m 1349.41,125.84 -137.07,-60.4181 49.4,117.6801 137.05,60.425 -49.38,-117.687 z"
         style="fill:none;stroke:#ffffff;stroke-opacity:1;stroke-width:10;stroke-linecap:butt;stroke-linejoin:miter;stroke-miterlimit:4;stroke-dasharray:none"
         id="path96" /><path
         d="m 1733.4,774.68 -137.07,-60.422 49.39,117.68 137.05,60.425 -49.37,-117.683"
         style="fill:#cce3f6;fill-opacity:1;fill-rule:nonzero;stroke:none"
         id="path98" /><path
         d="m 1733.4,774.68 -137.07,-60.422 49.39,117.68 137.05,60.425 -49.37,-117.683 z"
         style="fill:none;stroke:#ffffff;stroke-opacity:1;stroke-width:10;stroke-linecap:butt;stroke-linejoin:miter;stroke-miterlimit:4;stroke-dasharray:none"
         id="path100" /><path
         d="m 1011.01,668.766 -137.076,-60.422 49.394,117.683 137.052,60.422 -49.37,-117.683"
         style="fill:#cce3f6;fill-opacity:1;fill-rule:nonzero;stroke:none"
         id="path102" /><path
         d="m 1011.01,668.766 -137.076,-60.422 49.394,117.683 137.052,60.422 -49.37,-117.683 z"
         style="fill:none;stroke:#ffffff;stroke-opacity:1;stroke-width:10;stroke-linecap:butt;stroke-linejoin:miter;stroke-miterlimit:4;stroke-dasharray:none"
         id="path104" /><path
         d="m 638.113,312.555 -137.066,-60.422 49.391,117.68 137.05,60.425 -49.375,-117.683"
         style="fill:#cce3f6;fill-opacity:1;fill-rule:nonzero;stroke:none"
         id="path106" /><path
         d="m 638.113,312.555 -137.066,-60.422 49.391,117.68 137.05,60.425 -49.375,-117.683 z"
         style="fill:none;stroke:#ffffff;stroke-opacity:1;stroke-width:10;stroke-linecap:butt;stroke-linejoin:miter;stroke-miterlimit:4;stroke-dasharray:none"
         id="path108" /><g
         id="g110"
         transform="scale(10,10)"><text
           transform="matrix(1,0,0,-1,11.7273,33.7285)"
           id="text112"><tspan
             style="fill:#231f20;fill-opacity:1;fill-rule:nonzero;stroke:none;font-family:Helvetica;font-variant:normal;font-weight:bold;font-size:36;writing-mode:lr;-inkscape-font-specification:Helvetica-Bold"
             x="0 23.0398452 43.0558452 57.0598452 77.0758452"
             y="0"
             sodipodi:role="line"
             id="tspan114">ParaG</tspan></text>
</g><path
         d="m 1602.74,277.027 -52.02,0 -12.67,0.094 -13.79,0.18 -12.06,0.351 -13.39,0.711 -12.88,1.25 -12.97,2.321 -13.4,4.097 -12.67,6.235 -6.53,4.547 -6.65,5.613 -12.57,14.172 -6.64,9.531 -6.75,11.223 -6.34,12.39 -6.43,14.078 -6.34,15.684 -6.44,17.371 -12.67,37.965 -6.94,22.812 -7.05,23.52 -12.47,41.793 -6.55,21.297 -6.64,19.871 -6.64,17.902 -6.75,15.418 -6.43,12.027 -6.45,8.739 -6.23,5.164 -6.23,1.699 -3.27,-0.539 -3.37,-1.422 -3.27,-2.496 -3.37,-3.387 -6.54,-9.445 -6.65,-12.836 -6.13,-14.519 -6.14,-16.665 -6.53,-19.691 -6.65,-21.117 -12.97,-43.754 -6.65,-22.539 -6.74,-21.832 -12.27,-36.985 -6.64,-17.82 -6.65,-16.215 -6.22,-13.726 -6.24,-12.207 -6.96,-11.848 -7.04,-10.066 -11.86,-13.188 -6.74,-5.797 -6.75,-4.722 -12.97,-6.328 -13.39,-4.098 -11.96,-2.137 -13.7,-1.34 -13.07,-0.711 -13.19,-0.351 -12.77,-0.18 -12.88,-0.094 -51.812,0"
         style="fill:none;stroke:#000000;stroke-opacity:1;stroke-width:40;stroke-linecap:butt;stroke-linejoin:miter;stroke-miterlimit:1;stroke-dasharray:none"
         id="path116" /><path
         d="M 992.117,277.027 75.1172,273.48"
         style="fill:none;stroke:#000000;stroke-opacity:1;stroke-width:40;stroke-linecap:butt;stroke-linejoin:miter;stroke-miterlimit:1;stroke-dasharray:none"
         id="path118" /><path
         d="m 1602.74,277.027 575.59,-1.593"
         style="fill:none;stroke:#000000;stroke-opacity:1;stroke-width:40;stroke-linecap:butt;stroke-linejoin:miter;stroke-miterlimit:1;stroke-dasharray:none"
         id="path120" /><path
         d="m 2141.66,215.434 -2099.9959,0"
         style="fill:none;stroke:#000000;stroke-opacity:1;stroke-width:30;stroke-linecap:butt;stroke-linejoin:miter;stroke-miterlimit:1;stroke-dasharray:none"
         id="path122" /><path
         d="M 2099.99,165.434 0,165.434"
         style="fill:none;stroke:#000000;stroke-opacity:1;stroke-width:20;stroke-linecap:butt;stroke-linejoin:miter;stroke-miterlimit:1;stroke-dasharray:none"
         id="path124" /><g
         id="g126"
         transform="scale(10,10)"><text
           transform="matrix(1,0,0,-1,140.326,33.502)"
           id="text128"><tspan
             style="fill:#231f20;fill-opacity:1;fill-rule:nonzero;stroke:none;font-family:Helvetica;font-variant:normal;font-weight:bold;font-size:36;writing-mode:lr;-inkscape-font-specification:Helvetica-Bold"
             x="0 25.992 50.6880936"
             y="0"
             sodipodi:role="line"
             id="tspan130">USS</tspan></text>
</g><path
         d="m 1360.51,418.469 -137.07,-60.422 49.39,117.68 137.05,60.425 -49.37,-117.683"
         style="fill:#02a7ea;fill-opacity:1;fill-rule:nonzero;stroke:none"
         id="path132" /></g></g></svg>