<?xml version="1.0" encoding="UTF-8" standalone="no"?>
<!-- Created with Inkscape (http://www.inkscape.org/) -->

<svg
   xmlns:dc="http://purl.org/dc/elements/1.1/"
   xmlns:cc="http://creativecommons.org/ns#"
   xmlns:rdf="http://www.w3.org/1999/02/22-rdf-syntax-ns#"
   xmlns:svg="http://www.w3.org/2000/svg"
   xmlns="http://www.w3.org/2000/svg"
   xmlns:sodipodi="http://sodipodi.sourceforge.net/DTD/sodipodi-0.dtd"
   xmlns:inkscape="http://www.inkscape.org/namespaces/inkscape"
   width="661.99188"
   height="265.81616"
   id="svg2"
   sodipodi:version="0.32"
   inkscape:version="0.48.4 r9939"
   sodipodi:modified="true"
   version="1.1"
   sodipodi:docname="logo.svg">
  <defs
     id="defs4">
    <marker
       orient="auto"
       markerHeight="3"
       markerWidth="4"
       markerUnits="strokeWidth"
       refY="5"
       refX="10"
       viewBox="0 0 10 10"
       id="ArrowStart">
      <path
         id="path2186"
         d="M 10,0 0,5 10,10 z"
         inkscape:connector-curvature="0" />
    </marker>
    <marker
       orient="auto"
       markerHeight="3"
       markerWidth="4"
       markerUnits="strokeWidth"
       refY="5"
       refX="0"
       viewBox="0 0 10 10"
       id="ArrowEnd">
      <path
         id="path2183"
         d="M 0,0 10,5 0,10 z"
         inkscape:connector-curvature="0" />
    </marker>
  </defs>
  <sodipodi:namedview
     id="base"
     pagecolor="#ffffff"
     bordercolor="#666666"
     borderopacity="1.0"
     gridtolerance="10000"
     guidetolerance="10"
     objecttolerance="10"
     inkscape:pageopacity="0.0"
     inkscape:pageshadow="2"
     inkscape:zoom="1.2401964"
     inkscape:cx="330.99595"
     inkscape:cy="84.528648"
     inkscape:document-units="px"
     inkscape:current-layer="g2188"
     inkscape:window-width="1828"
     inkscape:window-height="1056"
     inkscape:window-x="-4"
     inkscape:window-y="-3"
     showgrid="false"
     inkscape:window-maximized="1"
     fit-margin-top="0"
     fit-margin-left="0"
     fit-margin-right="0"
     fit-margin-bottom="0" />
  <metadata
     id="metadata7">
    <rdf:RDF>
      <cc:Work
         rdf:about="">
        <dc:format>image/svg+xml</dc:format>
        <dc:type
           rdf:resource="http://purl.org/dc/dcmitype/StillImage" />
        <dc:title></dc:title>
      </cc:Work>
    </rdf:RDF>
  </metadata>
  <g
     inkscape:label="Layer 1"
     inkscape:groupmode="layer"
     id="layer1"
     transform="translate(-46.14691,-93.739817)">
    <g
       id="g2188"
       transform="matrix(0,1,-1,0,765.02891,88.998977)">
      <path
         id="path2190"
         d="M 93.9789,252.3 112.104,293.417 76.8029,278.601 58.6779,237.488 93.9828,252.3"
         style="fill:#c8def3;fill-rule:evenodd;stroke:none"
         inkscape:connector-curvature="0" />
      <path
         id="path2192"
         d="m 93.9789,252.3 18.1251,41.117 -35.3011,-14.816 -18.125,-41.113 35.3049,14.812 -0.0039,0 z"
         style="fill:none;stroke:#fffdfd;stroke-width:1"
         inkscape:connector-curvature="0" />
      <path
         id="path2194"
         d="m 74.6739,278.484 18.125,41.121 -35.305,-14.816 -18.125,-41.114 35.305,14.809"
         style="fill:#c8def3;fill-rule:evenodd;stroke:none"
         inkscape:connector-curvature="0" />
      <path
         id="path2196"
         d="m 74.6739,278.484 18.125,41.121 -35.305,-14.816 -18.125,-41.114 35.305,14.809 z"
         style="fill:none;stroke:#fffdfd;stroke-width:1"
         inkscape:connector-curvature="0" />
      <path
         id="path2198"
         d="m 128.108,334.417 18.125,41.118 -35.305,-14.817 -18.1251,-41.113 35.3051,14.809"
         style="fill:#c8def3;fill-rule:evenodd;stroke:none"
         inkscape:connector-curvature="0" />
      <path
         id="path2200"
         d="m 128.108,334.417 18.125,41.118 -35.305,-14.817 -18.1251,-41.113 35.3051,14.809 0,0.003 z"
         style="fill:none;stroke:#fffdfd;stroke-width:1"
         inkscape:connector-curvature="0" />
      <path
         id="path2202"
         d="m 110.928,360.718 18.125,41.117 -35.3011,-14.816 -18.125,-41.113 35.3051,14.812"
         style="fill:#c8def3;fill-rule:evenodd;stroke:none"
         inkscape:connector-curvature="0" />
      <path
         id="path2204"
         d="m 110.928,360.718 18.125,41.117 -35.3011,-14.816 -18.125,-41.113 35.3051,14.812 -0.004,0 z"
         style="fill:none;stroke:#fffdfd;stroke-width:1"
         inkscape:connector-curvature="0" />
      <path
         id="path2206"
         d="m 91.6229,386.902 18.1251,41.117 -35.3002,-14.816 -18.125,-41.114 35.3041,14.809"
         style="fill:#c8def3;fill-rule:evenodd;stroke:none"
         inkscape:connector-curvature="0" />
      <path
         id="path2208"
         d="m 91.6229,386.902 18.1251,41.117 -35.3002,-14.816 -18.125,-41.114 35.3041,14.809 -0.004,0.004 z"
         style="fill:none;stroke:#fffdfd;stroke-width:1"
         inkscape:connector-curvature="0" />
      <path
         id="path2210"
         d="m 145.057,442.835 18.125,41.118 -35.301,-14.817 -18.125,-41.113 35.305,14.812"
         style="fill:#c8def3;fill-rule:evenodd;stroke:none"
         inkscape:connector-curvature="0" />
      <path
         id="path2212"
         d="m 145.057,442.835 18.125,41.118 -35.301,-14.817 -18.125,-41.113 35.305,14.812 -0.004,0 z"
         style="fill:none;stroke:#fffdfd;stroke-width:1"
         inkscape:connector-curvature="0" />
      <path
         id="path2214"
         d="m 183.662,390.468 18.125,41.117 -35.3,-14.816 -18.125,-41.113 35.3,14.812"
         style="fill:#c8def3;fill-rule:evenodd;stroke:none"
         inkscape:connector-curvature="0" />
      <path
         id="path2216"
         d="m 183.662,390.468 18.125,41.117 -35.3,-14.816 -18.125,-41.113 35.3,14.812 z"
         style="fill:none;stroke:#fffdfd;stroke-width:1"
         inkscape:connector-curvature="0" />
      <path
         id="path2218"
         d="m 164.362,416.652 18.125,41.117 -35.301,-14.816 -18.125,-41.114 35.304,14.809"
         style="fill:#c8def3;fill-rule:evenodd;stroke:none"
         inkscape:connector-curvature="0" />
      <path
         id="path2220"
         d="m 164.362,416.652 18.125,41.117 -35.301,-14.816 -18.125,-41.114 35.304,14.809 -0.003,0.004 z"
         style="fill:none;stroke:#fffdfd;stroke-width:1"
         inkscape:connector-curvature="0" />
      <path
         id="path2222"
         d="m 217.791,472.585 18.125,41.118 -35.301,-14.817 -18.128,-41.113 35.304,14.812"
         style="fill:#c8def3;fill-rule:evenodd;stroke:none"
         inkscape:connector-curvature="0" />
      <path
         id="path2224"
         d="m 217.791,472.585 18.125,41.118 -35.301,-14.817 -18.128,-41.113 35.304,14.812 z"
         style="fill:none;stroke:#fffdfd;stroke-width:1"
         inkscape:connector-curvature="0" />
      <path
         id="path2226"
         d="m 55.3689,304.664 18.125,41.117 -35.3001,-14.817 -18.125,-41.113 35.3041,14.809"
         style="fill:#c8def3;fill-rule:evenodd;stroke:none"
         inkscape:connector-curvature="0" />
      <path
         id="path2228"
         d="m 55.3689,304.664 18.125,41.117 -35.3001,-14.817 -18.125,-41.113 35.3041,14.809 -0.004,0.004 z"
         style="fill:none;stroke:#fffdfd;stroke-width:1"
         inkscape:connector-curvature="0" />
      <path
         id="path2230"
         d="m 130.459,199.816 18.125,41.121 -35.301,-14.816 -18.1251,-41.114 35.3051,14.809"
         style="fill:#c8def3;fill-rule:evenodd;stroke:none"
         inkscape:connector-curvature="0" />
      <path
         id="path2232"
         d="m 130.459,199.816 18.125,41.121 -35.301,-14.816 -18.1251,-41.114 35.3051,14.809 -0.004,0 z"
         style="fill:none;stroke:#fffdfd;stroke-width:1"
         inkscape:connector-curvature="0" />
      <path
         id="path2234"
         d="m 111.155,225.996 18.125,41.117 -35.3011,-14.817 -18.125,-41.113 35.3041,14.809"
         style="fill:#c8def3;fill-rule:evenodd;stroke:none"
         inkscape:connector-curvature="0" />
      <path
         id="path2236"
         d="m 111.155,225.996 18.125,41.117 -35.3011,-14.817 -18.125,-41.113 35.3041,14.809 -0.003,0.004 z"
         style="fill:none;stroke:#fffdfd;stroke-width:1"
         inkscape:connector-curvature="0" />
      <path
         id="path2238"
         d="m 57.7249,170.062 18.125,41.121 -35.301,-14.816 -18.125,-41.114 35.305,14.809"
         style="fill:#c8def3;fill-rule:evenodd;stroke:none"
         inkscape:connector-curvature="0" />
      <path
         id="path2240"
         d="m 57.7249,170.062 18.125,41.121 -35.301,-14.816 -18.125,-41.114 35.305,14.809 -0.004,0 z"
         style="fill:none;stroke:#fffdfd;stroke-width:1"
         inkscape:connector-curvature="0" />
      <path
         id="path2242"
         d="m 92.0799,117.457 18.1251,41.117 -35.3002,-14.817 -18.125,-41.113 35.3041,14.809"
         style="fill:#c8def3;fill-rule:evenodd;stroke:none"
         inkscape:connector-curvature="0" />
      <path
         id="path2244"
         d="m 92.0799,117.457 18.1251,41.117 -35.3002,-14.817 -18.125,-41.113 35.3041,14.809 -0.004,0.004 z"
         style="fill:none;stroke:#fffdfd;stroke-width:1"
         inkscape:connector-curvature="0" />
      <path
         id="path2246"
         d="m 164.588,281.929 18.125,41.117 -35.301,-14.816 -18.125,-41.113 35.305,14.812"
         style="fill:#c8def3;fill-rule:evenodd;stroke:none"
         inkscape:connector-curvature="0" />
      <path
         id="path2248"
         d="m 164.588,281.929 18.125,41.117 -35.301,-14.816 -18.125,-41.113 35.305,14.812 -0.004,0 z"
         style="fill:none;stroke:#fffdfd;stroke-width:1"
         inkscape:connector-curvature="0" />
      <path
         id="path2250"
         d="m 217.807,338.398 18.125,41.121 -35.305,-14.816 -18.125,-41.114 35.305,14.809"
         style="fill:#c8def3;fill-rule:evenodd;stroke:none"
         inkscape:connector-curvature="0" />
      <path
         id="path2252"
         d="m 217.807,338.398 18.125,41.121 -35.305,-14.816 -18.125,-41.114 35.305,14.809 z"
         style="fill:none;stroke:#fffdfd;stroke-width:1"
         inkscape:connector-curvature="0" />
      <path
         id="path2254"
         d="m 198.498,364.581 18.125,41.118 -35.304,-14.817 -18.125,-41.113 35.3,14.809"
         style="fill:#c8def3;fill-rule:evenodd;stroke:none"
         inkscape:connector-curvature="0" />
      <path
         id="path2256"
         d="m 198.498,364.581 18.125,41.118 -35.304,-14.817 -18.125,-41.113 35.3,14.809 0.004,0.003 z"
         style="fill:none;stroke:#fffdfd;stroke-width:1"
         inkscape:connector-curvature="0" />
      <path
         id="path2258"
         d="m 251.932,420.515 18.125,41.117 -35.301,-14.816 -18.129,-41.113 35.305,14.812"
         style="fill:#c8def3;fill-rule:evenodd;stroke:none"
         inkscape:connector-curvature="0" />
      <path
         id="path2260"
         d="m 251.932,420.515 18.125,41.117 -35.301,-14.816 -18.129,-41.113 35.305,14.812 z"
         style="fill:none;stroke:#fffdfd;stroke-width:1"
         inkscape:connector-curvature="0" />
      <path
         id="path2262"
         d="m 201.073,229.445 18.125,41.117 -35.305,-14.816 -18.125,-41.114 35.305,14.809"
         style="fill:#c8def3;fill-rule:evenodd;stroke:none"
         inkscape:connector-curvature="0" />
      <path
         id="path2264"
         d="m 201.073,229.445 18.125,41.117 -35.305,-14.816 -18.125,-41.114 35.305,14.809 0,0.004 z"
         style="fill:none;stroke:#fffdfd;stroke-width:1"
         inkscape:connector-curvature="0" />
      <path
         id="path2266"
         d="m 181.768,255.628 18.125,41.118 -35.305,-14.817 -18.125,-41.113 35.305,14.812"
         style="fill:#c8def3;fill-rule:evenodd;stroke:none"
         inkscape:connector-curvature="0" />
      <path
         id="path2268"
         d="m 181.768,255.628 18.125,41.118 -35.305,-14.817 -18.125,-41.113 35.305,14.812 z"
         style="fill:none;stroke:#fffdfd;stroke-width:1"
         inkscape:connector-curvature="0" />
      <path
         id="path2270"
         d="m 235.198,311.562 18.125,41.117 -35.301,-14.816 -18.129,-41.114 35.301,14.813"
         style="fill:#c8def3;fill-rule:evenodd;stroke:none"
         inkscape:connector-curvature="0" />
      <path
         id="path2272"
         d="m 235.198,311.562 18.125,41.117 -35.301,-14.816 -18.129,-41.114 35.301,14.813 0.004,0 z"
         style="fill:none;stroke:#fffdfd;stroke-width:1"
         inkscape:connector-curvature="0" />
      <path
         id="path2274"
         d="M 40.5449,196.367 58.6699,237.484 23.3649,222.667 5.24084,181.554 40.5449,196.363"
         style="fill:#c8def3;fill-rule:evenodd;stroke:none"
         inkscape:connector-curvature="0" />
      <path
         id="path2276"
         d="m 40.5449,196.367 18.125,41.117 -35.305,-14.817 -18.12406,-41.113 35.30406,14.809 0,0.004 z"
         style="fill:none;stroke:#fffdfd;stroke-width:1"
         inkscape:connector-curvature="0" />
      <path
         id="path2278"
         d="m 72.3228,413.085 18.125,41.118 -35.3049,-14.817 -18.125,-41.113 35.3049,14.812"
         style="fill:#c8def3;fill-rule:evenodd;stroke:none"
         inkscape:connector-curvature="0" />
      <path
         id="path2280"
         d="m 72.3228,413.085 18.125,41.118 -35.3049,-14.817 -18.125,-41.113 35.3049,14.812 z"
         style="fill:none;stroke:#fffdfd;stroke-width:1"
         inkscape:connector-curvature="0" />
      <path
         id="path2282"
         d="M 179.186,524.953 197.311,566.07 162.01,551.253 143.885,510.14 179.19,524.949"
         style="fill:#c8def3;fill-rule:evenodd;stroke:none"
         inkscape:connector-curvature="0" />
      <path
         id="path2284"
         d="m 179.186,524.953 18.125,41.117 -35.301,-14.817 -18.125,-41.113 35.305,14.809 -0.004,0.004 z"
         style="fill:none;stroke:#fffdfd;stroke-width:1"
         inkscape:connector-curvature="0" />
      <path
         id="path2286"
         d="m 171.752,622.636 -31.543,0 0,-16.203 c 0,-8.75 -2.16,-14.906 -6.59,-18.473 -4.425,-3.562 -10.046,-5.293 -16.961,-5.293 -5.293,0 -9.722,1.079 -13.394,3.239 -3.5631,2.16 -6.0471,5.183 -7.3441,8.75 -0.969,2.699 -1.512,6.91 -1.512,12.531 l 0,23.875 77.3481,0 -0.004,-8.426 z m -68.277,0 0,-16.203 c 0,-4.426 0.43,-7.453 1.187,-9.074 0.864,-1.727 2.375,-3.133 4.536,-4.32 2.16,-1.188 4.753,-1.727 7.882,-1.727 4.645,0 8.211,1.187 10.586,3.562 2.266,2.375 3.453,6.157 3.453,11.344 l 0,16.418 -27.644,0 z"
         style="fill:#222222;fill-rule:evenodd;stroke:none"
         inkscape:connector-curvature="0" />
      <path
         id="path2288"
         d="m 171.752,541.499 0,-8.101 c -2.16,0.969 -4.426,1.617 -6.695,1.941 -2.375,0.321 -7.883,0.539 -16.742,0.539 l -12.637,0 c -5.184,0 -9.074,0.321 -11.773,1.079 -2.59,0.753 -4.86,2.484 -6.696,5.183 -1.836,2.809 -2.699,6.59 -2.699,11.34 0,6.266 1.402,11.016 4.102,14.367 2.699,3.238 7.019,5.508 12.961,6.59 l 1.402,-7.777 c -4.102,-0.864 -6.91,-2.161 -8.426,-3.996 -1.512,-1.727 -2.266,-4.426 -2.266,-8.102 0,-3.996 1.079,-6.91 3.348,-8.855 1.617,-1.403 4.32,-2.051 8.102,-2.051 l 2.484,0 c 1.293,3.023 2.375,7.668 3.238,14.043 0.645,4.644 1.727,8.211 3.133,10.586 1.403,2.265 3.348,4.101 5.832,5.398 2.485,1.402 5.399,2.051 8.641,2.051 4.859,0 8.75,-1.403 11.668,-4.32 2.914,-2.809 4.32,-6.59 4.32,-11.45 0,-3.023 -0.644,-5.941 -2.051,-8.75 -1.402,-2.808 -3.453,-5.507 -6.156,-8.101 2.699,-0.215 4.969,-0.754 6.91,-1.617 l 0,0.003 z m -24.633,2.161 c 4.645,0 8.102,0.644 10.586,1.726 2.375,1.188 4.321,2.809 5.723,5.074 1.402,2.266 2.16,4.86 2.16,7.559 0,3.023 -0.754,5.293 -2.375,6.91 -1.617,1.617 -3.777,2.485 -6.48,2.485 -1.727,0 -3.239,-0.321 -4.535,-1.079 -1.293,-0.754 -2.266,-1.726 -3.024,-3.023 -0.754,-1.293 -1.402,-3.563 -1.941,-6.91 -0.969,-5.617 -2.16,-9.828 -3.563,-12.746 l 3.449,0.004 z"
         style="fill:#222222;fill-rule:evenodd;stroke:none"
         inkscape:connector-curvature="0" />
      <path
         id="path2290"
         d="m 171.752,515.968 -29.273,0 c -4.102,0 -7.992,-0.539 -11.559,-1.511 -2.051,-0.54 -3.672,-1.512 -4.859,-2.915 -1.188,-1.293 -1.727,-2.808 -1.727,-4.535 0,-1.836 0.645,-3.672 2.051,-5.617 l -8.855,-2.59 c -2.051,2.699 -3.024,5.399 -3.024,7.992 0,1.836 0.645,3.563 1.942,4.969 1.293,1.512 3.886,3.133 7.882,4.969 l -8.64,0 0,7.019 56.066,0 -0.004,-7.781 z"
         style="fill:#222222;fill-rule:evenodd;stroke:none"
         inkscape:connector-curvature="0" />
      <path
         id="path2292"
         d="m 171.752,462.699 0,-8.102 c -2.16,0.969 -4.426,1.617 -6.695,1.942 -2.375,0.32 -7.883,0.539 -16.742,0.539 l -12.637,0 c -5.184,0 -9.074,0.32 -11.773,1.078 -2.59,0.754 -4.86,2.484 -6.696,5.183 -1.836,2.809 -2.699,6.59 -2.699,11.34 0,6.266 1.402,11.016 4.102,14.367 2.699,3.239 7.019,5.508 12.961,6.59 l 1.402,-7.777 c -4.102,-0.863 -6.91,-2.16 -8.426,-3.996 -1.512,-1.727 -2.266,-4.426 -2.266,-8.102 0,-3.996 1.079,-6.91 3.348,-8.855 1.617,-1.403 4.32,-2.051 8.102,-2.051 l 2.484,0 c 1.293,3.023 2.375,7.668 3.238,14.043 0.645,4.644 1.727,8.211 3.133,10.586 1.403,2.265 3.348,4.101 5.832,5.398 2.485,1.403 5.399,2.051 8.641,2.051 4.859,0 8.75,-1.402 11.668,-4.32 2.914,-2.809 4.32,-6.59 4.32,-11.449 0,-3.024 -0.644,-5.942 -2.051,-8.75 -1.402,-2.809 -3.453,-5.508 -6.156,-8.102 2.699,-0.215 4.969,-0.754 6.91,-1.617 l 0,0.004 z m -24.633,2.16 c 4.645,0 8.102,0.644 10.586,1.726 2.375,1.188 4.321,2.809 5.723,5.075 1.402,2.265 2.16,4.859 2.16,7.558 0,3.024 -0.754,5.293 -2.375,6.91 -1.617,1.618 -3.777,2.485 -6.48,2.485 -1.727,0 -3.239,-0.321 -4.535,-1.078 -1.293,-0.754 -2.266,-1.727 -3.024,-3.024 -0.754,-1.293 -1.402,-3.562 -1.941,-6.91 -0.969,-5.617 -2.16,-9.828 -3.563,-12.746 l 3.449,0.004 z"
         style="fill:#222222;fill-rule:evenodd;stroke:none"
         inkscape:connector-curvature="0" />
      <path
         id="path2294"
         d="m 141.393,395.457 14.472,0 c 2.161,2.05 3.997,4.753 5.618,8.21 1.617,3.563 2.375,6.911 2.375,10.262 0,6.91 -2.59,12.531 -7.778,16.852 -5.074,4.32 -12.855,6.48 -23.226,6.48 -6.805,0 -12.531,-0.969 -17.176,-3.023 -4.754,-2.051 -8.211,-4.754 -10.477,-7.992 -2.265,-3.348 -3.347,-7.344 -3.347,-11.989 0,-3.133 0.644,-5.941 1.836,-8.531 1.293,-2.484 2.914,-4.535 5.074,-6.047 2.16,-1.617 5.508,-2.914 9.828,-3.887 l -2.484,-7.562 c -5.508,1.078 -9.938,2.809 -13.071,5.074 -3.1322,2.266 -5.6171,5.074 -7.3432,8.641 -1.7269,3.453 -2.5899,7.453 -2.5899,12.097 0,6.372 1.511,11.774 4.4259,16.418 3.0232,4.645 7.5582,8.317 13.8242,11.125 6.265,2.914 13.609,4.321 22.035,4.321 8.426,0 15.555,-1.403 21.496,-4.211 5.941,-2.914 10.367,-6.696 13.504,-11.559 3.133,-4.859 4.644,-10.367 4.644,-16.527 0,-4.645 -0.968,-9.18 -3.023,-13.61 -2.051,-4.425 -4.969,-8.64 -8.965,-12.746 l -28.734,0 0,26.789 9.074,0 0.008,-18.585 z"
         style="fill:#222222;fill-rule:evenodd;stroke:none"
         inkscape:connector-curvature="0" />
      <path
         id="path2296"
         d="m 189.842,235.562 0,15.605 -0.023,3.801 -0.055,4.137 -0.102,3.617 -0.214,4.012 -0.375,3.863 -0.696,3.891 -1.226,4.019 -1.868,3.797 -1.363,1.961 -1.683,1.992 -4.25,3.77 -2.856,1.988 -3.367,2.024 -3.715,1.898 -4.223,1.93 -4.703,1.898 -5.211,1.934 -11.386,3.797 -6.84,2.082 -7.055,2.113 -12.535,3.738 -6.387,1.961 -5.957,1.988 -5.3711,1.989 -4.621,2.023 -3.6091,1.93 -2.6179,1.933 -1.5461,1.868 -0.5079,1.867 0.16,0.98 0.4259,1.008 0.7461,0.981 1.015,1.007 2.832,1.961 3.848,1.992 4.3519,1.84 5.0002,1.84 5.906,1.961 6.336,1.988 13.125,3.891 6.762,1.992 6.546,2.02 11.094,3.679 5.344,1.989 4.863,1.992 4.114,1.867 3.66,1.867 3.55,2.086 3.02,2.113 3.953,3.555 1.738,2.024 1.414,2.019 1.895,3.891 1.227,4.015 0.64,3.586 0.399,4.106 0.214,3.922 0.102,3.953 0.055,3.828 0.023,3.863 0,15.543 m 0.004,-3.598 1.063,275.098 m -1.063,-458.285 0.477,-172.6719"
         style="fill:none;stroke:#222222;stroke-width:12"
         inkscape:connector-curvature="0" />
      <path
         id="path2298"
         d="m 208.323,73.8862 0,629.9998"
         style="fill:none;stroke:#222222;stroke-width:7"
         inkscape:connector-curvature="0" />
      <path
         id="path2300"
         d="m 223.323,86.3901 0,629.9919"
         style="fill:none;stroke:#222222;stroke-width:5"
         inkscape:connector-curvature="0" />
      <path
         id="path2302"
         d="m 139.717,229.386 c 9.828,0 16.418,1.293 19.77,3.996 3.347,2.699 5.074,7.02 5.074,12.961 0,3.563 -0.863,6.59 -2.485,9.074 -1.617,2.375 -3.996,4.211 -7.128,5.293 -3.133,1.079 -8.211,1.618 -15.231,1.618 l -44.6131,0 0,8.425 44.7221,0 c 12.637,0 21.387,-2.05 26.465,-6.265 4.969,-4.102 7.453,-10.367 7.453,-18.688 0,-5.941 -1.402,-10.91 -4.211,-14.691 -2.699,-3.887 -6.48,-6.481 -11.339,-7.992 -4.754,-1.403 -10.911,-2.16 -18.364,-2.16 l -44.7222,0 0,8.425 44.6092,0.004 z"
         style="fill:#222222;fill-rule:evenodd;stroke:none"
         inkscape:connector-curvature="0" />
      <path
         id="path2304"
         d="m 166.615,202.335 c 4.75,-4.644 7.129,-10.91 7.129,-18.796 0,-4.969 -0.968,-9.29 -2.808,-12.856 -1.942,-3.562 -4.754,-6.371 -8.317,-8.426 -3.671,-2.05 -7.668,-3.133 -12.097,-3.133 -4.535,0 -8.317,0.969 -11.559,2.915 -3.238,1.941 -5.832,4.859 -7.777,8.75 -1.188,2.484 -2.699,6.91 -4.426,13.179 -1.727,6.481 -3.453,10.586 -5.184,12.422 -1.726,1.836 -4.101,2.699 -7.234,2.699 -3.348,0 -6.156,-1.293 -8.316,-3.777 -2.051,-2.484 -3.133,-6.047 -3.133,-10.801 0,-4.754 1.187,-8.316 3.672,-10.91 2.375,-2.59 6.156,-4.102 11.125,-4.535 l -0.754,-7.992 c -4.75,0.105 -8.856,1.187 -12.313,3.133 -3.453,1.941 -6.1561,4.644 -7.9921,8.21 -1.836,3.563 -2.8081,7.668 -2.8081,12.422 0,6.805 1.9411,12.207 5.9411,16.313 3.9961,3.996 9.0741,6.047 15.3401,6.047 3.562,0 6.59,-0.754 9.398,-2.16 2.809,-1.403 5.074,-3.348 6.805,-5.832 1.836,-2.59 3.562,-6.805 5.398,-12.856 1.942,-6.695 3.453,-11.02 4.536,-13.07 1.078,-2.051 2.484,-3.563 4.21,-4.535 1.727,-0.969 3.672,-1.512 5.942,-1.512 3.887,0 7.129,1.402 9.504,4.101 2.484,2.809 3.672,6.696 3.672,11.668 0,3.454 -0.754,6.59 -2.161,9.289 -1.402,2.809 -3.347,4.969 -5.722,6.372 -2.375,1.511 -5.723,2.484 -9.938,2.914 l 0.754,7.992 c 8.102,-0.215 14.473,-2.59 19.121,-7.235 l -0.008,0 z"
         style="fill:#222222;fill-rule:evenodd;stroke:none"
         inkscape:connector-curvature="0" />
      <path
         id="path2306"
         d="m 166.615,143.234 c 4.75,-4.645 7.129,-10.91 7.129,-18.797 0,-4.969 -0.968,-9.289 -2.808,-12.856 -1.942,-3.562 -4.754,-6.371 -8.317,-8.425 -3.671,-2.051 -7.668,-3.133 -12.097,-3.133 -4.535,0 -8.317,0.969 -11.559,2.914 -3.238,1.941 -5.832,4.859 -7.777,8.75 -1.188,2.484 -2.699,6.91 -4.426,13.18 -1.727,6.48 -3.453,10.586 -5.184,12.422 -1.726,1.835 -4.101,2.699 -7.234,2.699 -3.348,0 -6.156,-1.293 -8.316,-3.778 -2.051,-2.484 -3.133,-6.046 -3.133,-10.8 0,-4.754 1.187,-8.317 3.672,-10.911 2.375,-2.589 6.156,-4.101 11.125,-4.535 l -0.754,-7.992 c -4.75,0.106 -8.856,1.188 -12.313,3.133 -3.453,1.941 -6.1561,4.644 -7.9921,8.211 -1.836,3.562 -2.8081,7.668 -2.8081,12.422 0,6.804 1.9411,12.207 5.9411,16.312 3.9961,3.996 9.0741,6.047 15.3401,6.047 3.562,0 6.59,-0.754 9.398,-2.16 2.809,-1.402 5.074,-3.348 6.805,-5.832 1.836,-2.59 3.562,-6.805 5.398,-12.856 1.942,-6.695 3.453,-11.019 4.536,-13.07 1.078,-2.051 2.484,-3.562 4.21,-4.535 1.727,-0.969 3.672,-1.512 5.942,-1.512 3.887,0 7.129,1.403 9.504,4.102 2.484,2.808 3.672,6.695 3.672,11.668 0,3.453 -0.754,6.59 -2.161,9.289 -1.402,2.808 -3.347,4.969 -5.722,6.371 -2.375,1.512 -5.723,2.484 -9.938,2.914 l 0.754,7.992 c 8.102,-0.215 14.473,-2.59 19.121,-7.234 l -0.008,0 z"
         style="fill:#222222;fill-rule:evenodd;stroke:none"
         inkscape:connector-curvature="0" />
      <path
         id="path2308"
         d="m 147.408,308.234 18.125,41.121 -35.3,-14.816 -18.125,-41.114 35.304,14.809"
         style="fill:#14abe8;fill-rule:evenodd;stroke:none"
         inkscape:connector-curvature="0" />
    </g>
  </g>
</svg>
